# xmcd
#
# Track frame offsets:
#	182
#	14347
#	26597
#	40120
#	55212
#	69785
#	84155
#	98610
#	112842
#	125892
#	137887
#	152022
#	165335
#	178347
#	191085
#	202270
#	214490
#	228577
#	240360
#	253175
#	267350
#
# Disc length: 3734 seconds
#
# Revision: 1
# Processed by: cddbd v1.5.2PL0 Copyright (c) Steve Scherf et al.
# Submitted via: EasyCDDAExtractor 12.0.7.1
#
DISCID=260e9415
DTITLE=Sleepy John Estes - Sleepy John Estes 1935-1938
DYEAR=1991
DGENRE=Blues
TTITLE0=Down south blues
TTITLE1=Stop that thing
TTITLE2=Someday baby blues
TTITLE3=Who's tellin' you Buddy Brown blues
TTITLE4=Marries woman blues
TTITLE5=Dop down mama
TTITLE6=Government money
TTITLE7=Vernita blues
TTITLE8=Need more blues
TTITLE9=Jack and Jill blues
TTITLE10=Poor man's blues
TTITLE11=Hobo jungle blues
TTITLE12=Airplane blues
TTITLE13=Everybody oughta make a change
TTITLE14=Liquor store blues
TTITLE15=Easin' back to Tennessee
TTITLE16=Fire department blues
TTITLE17=Clean up at home
TTITLE18=New someday baby
TTITLE19=Brownsville blues
TTITLE20=Special agent ( Railroad police blues)
EXTD=
EXTT0=
EXTT1=
EXTT2=
EXTT3=
EXTT4=
EXTT5=
EXTT6=
EXTT7=
EXTT8=
EXTT9=
EXTT10=
EXTT11=
EXTT12=
EXTT13=
EXTT14=
EXTT15=
EXTT16=
EXTT17=
EXTT18=
EXTT19=
EXTT20=
PLAYORDER=
